#!OML:ASF H:\Martial Arts Walks\Project 1\Capture day 1\Session 1\male.ASF
:FULLY-SPECIFIED
:DEGREES
2230
root 0.534816 17.0187 -50.4222 4.90234 -2.14072 -1.45039
lowerback 5.18158 -0.16109 -4.97827
upperback -1.81247 -0.427762 3.11333
thorax -4.7454 -0.011435 6.10931
lowerneck -2.93003 -9.31967 -10.9491
upperneck 26.0463 -14.7026 10.7448
head 10.4084 -6.92096 4.07215
rclavicle -2.60905e-015 4.77083e-015
rhumerus -41.5944 7.50481 -80.3441
rradius 36.0591
rwrist -1.90085
rhand -9.28831 -20.1267
rfingers 7.12502
rthumb 16.6689 -49.431
lclavicle -2.60905e-015 4.77083e-015
lhumerus -28.6384 -20.042 95.7538
lradius 54.7614
lwrist -10.267
lhand -19.1273 22.1898
lfingers 7.12502
lthumb 7.1823 -307.952
rfemur -20.021 9.0099 10.5972
rtibia 36.5804
rfoot -12.7984 -12.1656
rtoes -14.9884
lfemur -9.87542 -2.94677 -14.5834
ltibia 29.891
lfoot -13.2604 18.5177
ltoes -11.661
2231
root 0.532494 17.0182 -50.4236 4.86839 -2.11918 -1.44589
lowerback 5.18217 -0.100737 -4.90431
upperback -1.82967 -0.343066 3.08263
thorax -4.77598 0.0294383 6.0268
lowerneck -3.21304 -8.85258 -10.5115
upperneck 25.7479 -14.0444 10.8521
head 10.2351 -6.56031 4.11386
rclavicle 3.3048e-015 1.59028e-014
rhumerus -41.6267 7.37979 -80.3895
rradius 36.0656
rwrist -1.87011
rhand -9.28053 -20.0779
rfingers 7.12502
rthumb 16.6764 -49.3815
lclavicle 3.3048e-015 1.59028e-014
lhumerus -28.4289 -20.7722 95.9049
lradius 56.4281
lwrist -9.7069
lhand -18.8088 21.9728
lfingers 7.12502
lthumb 7.48973 -308.18
rfemur -19.9936 9.02977 10.6083
rtibia 36.6045
rfoot -12.8003 -12.1976
rtoes -14.962
lfemur -9.84247 -2.94066 -14.5757
ltibia 29.8794
lfoot -13.2549 18.4895
ltoes -11.68
2232
root 0.530087 17.0178 -50.4248 4.84097 -2.10395 -1.43896
lowerback 5.17058 -0.0415004 -4.83285
upperback -1.84324 -0.259523 3.05284
thorax -4.79534 0.069312 5.94653
lowerneck -3.54111 -8.37378 -10.0547
upperneck 25.4884 -13.3659 10.9177
head 10.0818 -6.18961 4.13556
rclavicle -8.32411e-015 3.29983e-014
rhumerus -41.6453 7.2768 -80.4389
rradius 36.0898
rwrist -1.85644
rhand -9.27653 -20.0305
rfingers 7.12502
rthumb 16.6802 -49.3338
lclavicle -8.32411e-015 3.29983e-014
lhumerus -28.1815 -21.4841 96.029
lradius 58.1543
lwrist -9.22213
lhand -18.484 21.7115
lfingers 7.12502
lthumb 7.8032 -308.453
rfemur -19.9764 9.0456 10.6154
rtibia 36.6303
rfoot -12.8059 -12.2209
rtoes -14.9409
lfemur -9.81458 -2.93265 -14.5709
ltibia 29.8671
lfoot -13.2534 18.4628
ltoes -11.6865
2233
root 0.527478 17.0174 -50.426 4.81905 -2.09061 -1.42914
lowerback 5.14683 0.0146854 -4.76518
upperback -1.85326 -0.179832 3.02416
thorax -4.80324 0.106905 5.86975
lowerneck -3.90761 -7.88496 -9.57831
upperneck 25.2711 -12.6706 10.9382
head 9.94907 -5.81109 4.13636
rclavicle -7.20594e-016 1.47101e-014
rhumerus -41.6553 7.19825 -80.4922
rradius 36.1377
rwrist -1.86063
rhand -9.27092 -20.0193
rfingers 7.12502
rthumb 16.6856 -49.3221
lclavicle -7.20594e-016 1.47101e-014
lhumerus -27.8931 -22.1773 96.1254
lradius 59.9299
lwrist -8.81608
lhand -18.168 21.3957
lfingers 7.12502
lthumb 8.10816 -308.78
rfemur -19.9674 9.05883 10.6186
rtibia 36.658
rfoot -12.8124 -12.2368
rtoes -14.9153
lfemur -9.79216 -2.92228 -14.5687
ltibia 29.853
lfoot -13.244 18.439
ltoes -11.7122
2234
root 0.524764 17.0171 -50.4268 4.80956 -2.08498 -1.41415
lowerback 5.0967 0.0695301 -4.70729
upperback -1.87846 -0.101686 2.99557
thorax -4.81162 0.144406 5.79874
lowerneck -4.17397 -7.38087 -9.115
upperneck 25.0265 -11.9607 10.9592
head 9.79138 -5.43127 4.14266
rclavicle -2.73329e-016 -2.46493e-014
rhumerus -41.694 7.15142 -80.5541
rradius 36.2097
rwrist -1.88953
rhand -9.26219 -20.0812
rfingers 7.12502
rthumb 16.694 -49.3834
lclavicle -2.73329e-016 -2.46493e-014
lhumerus -27.6015 -22.8587 96.2098
lradius 61.7486
lwrist -8.45571
lhand -17.8529 21.0257
lfingers 7.12502
lthumb 8.41226 -309.162
rfemur -19.9744 9.06575 10.6135
rtibia 36.6874
rfoot -12.8219 -12.2454
rtoes -14.8904
lfemur -9.77832 -2.90755 -14.5724
ltibia 29.8354
lfoot -13.2319 18.4204
ltoes -11.7413
2235
root 0.521849 17.017 -50.4272 4.80799 -2.0852 -1.39558
lowerback 5.03006 0.124347 -4.65326
upperback -1.90052 -0.023277 2.96702
thorax -4.80713 0.181651 5.72981
lowerneck -4.45443 -6.87352 -8.6488
upperneck 24.8043 -11.2468 10.9573
head 9.64755 -5.05027 4.13788
rclavicle -6.53505e-015 -9.93923e-015
rhumerus -41.7215 7.11369 -80.6135
rradius 36.2981
rwrist -1.92645
rhand -9.2478 -20.2223
rfingers 7.12502
rthumb 16.7079 -49.5233
lclavicle -6.53505e-015 -9.93923e-015
lhumerus -27.2538 -23.5456 96.2676
lradius 63.5954
lwrist -8.09975
lhand -17.5217 20.6321
lfingers 7.12502
lthumb 8.73196 -309.569
rfemur -19.9916 9.06851 10.6036
rtibia 36.7181
rfoot -12.8286 -12.2569
rtoes -14.8945
lfemur -9.77015 -2.88574 -14.5798
ltibia 29.8162
lfoot -13.2212 18.4023
ltoes -11.777
2236
root 0.518683 17.0169 -50.4275 4.81081 -2.08531 -1.37589
lowerback 4.95619 0.179362 -4.6002
upperback -1.92446 0.055512 2.93803
thorax -4.80031 0.219073 5.66103
lowerneck -4.68806 -6.36656 -8.19666
upperneck 24.5748 -10.537 10.9518
head 9.4984 -4.6745 4.13267
rclavicle -8.52289e-015 1.82882e-014
rhumerus -41.7509 7.07387 -80.6672
rradius 36.399
rwrist -1.96367
rhand -9.22822 -20.4035
rfingers 7.12502
rthumb 16.7267 -49.7029
lclavicle -8.52289e-015 1.82882e-014
lhumerus -26.8626 -24.2521 96.3031
lradius 65.4733
lwrist -7.68276
lhand -17.1814 20.2467
lfingers 7.12502
lthumb 9.06031 -309.968
rfemur -20.0139 9.06993 10.5925
rtibia 36.7501
rfoot -12.833 -12.2743
rtoes -14.9058
lfemur -9.76603 -2.86403 -14.5872
ltibia 29.7962
lfoot -13.2093 18.3835
ltoes -11.8169
2237
root 0.515118 17.0167 -50.4286 4.80148 -2.05895 -1.35366
lowerback 4.91277 0.226678 -4.54959
upperback -1.94848 0.122752 2.91139
thorax -4.80918 0.251339 5.59757
lowerneck -4.83215 -5.86102 -7.78796
upperneck 24.2939 -9.83298 10.9734
head 9.32342 -4.30692 4.14295
rclavicle -5.71506e-015 -7.15625e-015
rhumerus -41.7848 7.03025 -80.7094
rradius 36.5164
rwrist -1.99484
rhand -9.20553 -20.5811
rfingers 7.12502
rthumb 16.7486 -49.8786
lclavicle -5.71506e-015 -7.15625e-015
lhumerus -26.4227 -24.9744 96.3174
lradius 67.3857
lwrist -7.16825
lhand -16.8464 19.9369
lfingers 7.12502
lthumb 9.38355 -310.292
rfemur -20.0182 9.06693 10.5831
rtibia 36.7835
rfoot -12.8358 -12.3119
rtoes -14.9056
lfemur -9.76074 -2.86406 -14.5952
ltibia 29.779
lfoot -13.1908 18.3601
ltoes -11.8612
2238
root 0.511161 17.0162 -50.4304 4.77868 -2.00852 -1.32854
lowerback 4.89767 0.267221 -4.5004
upperback -1.96524 0.179861 2.88664
thorax -4.82507 0.278658 5.53806
lowerneck -4.94628 -5.3644 -7.40851
upperneck 24.0006 -9.14104 10.9957
head 9.14584 -3.94852 4.1548
rclavicle -9.0944e-015 3.37934e-014
rhumerus -41.8035 6.98054 -80.7377
rradius 36.6394
rwrist -2.01613
rhand -9.18216 -20.7154
rfingers 7.12502
rthumb 16.7711 -50.0111
lclavicle -9.0944e-015 3.37934e-014
lhumerus -25.9163 -25.7145 96.3023
lradius 69.3304
lwrist -6.53374
lhand -16.5782 19.7251
lfingers 7.12502
lthumb 9.64232 -310.516
rfemur -20.0033 9.05688 10.5754
rtibia 36.8187
rfoot -12.8382 -12.3624
rtoes -14.9001
lfemur -9.7501 -2.88479 -14.6041
ltibia 29.7648
lfoot -13.1709 18.3318
ltoes -11.9079
2239
root 0.506746 17.0156 -50.4332 4.73566 -1.916 -1.30051
lowerback 4.92764 0.292646 -4.45485
upperback -1.98184 0.21507 2.8665
thorax -4.86354 0.295923 5.48781
lowerneck -5.01354 -4.87639 -7.05859
upperneck 23.7001 -8.45868 11.0068
head 8.96303 -3.59974 4.16484
rclavicle 4.91992e-015 -1.74931e-014
rhumerus -41.8113 6.93157 -80.7497
rradius 36.7558
rwrist -2.02906
rhand -9.15419 -20.6791
rfingers 7.12502
rthumb 16.798 -49.9725
lclavicle 4.91992e-015 -1.74931e-014
lhumerus -25.3573 -26.4657 96.2543
lradius 71.3086
lwrist -5.77264
lhand -16.3885 19.5981
lfingers 7.12502
lthumb 9.82539 -310.651
rfemur -19.9581 9.03822 10.5722
rtibia 36.857
rfoot -12.8416 -12.4345
rtoes -14.8757
lfemur -9.73343 -2.92922 -14.6108
ltibia 29.7531
lfoot -13.1473 18.2843
ltoes -11.9561
2240
root 0.50205 17.0148 -50.4363 4.6851 -1.80055 -1.27055
lowerback 4.97686 0.309678 -4.41166
upperback -2.00324 0.238361 2.84936
thorax -4.91647 0.307893 5.44334
lowerneck -5.03397 -4.39854 -6.73637
upperneck 23.3935 -7.78887 11.01
head 8.77555 -3.26137 4.1736
rclavicle -4.22417e-015 1.47101e-014
rhumerus -41.82 6.90737 -80.7604
rradius 36.8795
rwrist -2.06173
rhand -9.13311 -20.6445
rfingers 7.12502
rthumb 16.8183 -49.9362
lclavicle -4.22417e-015 1.47101e-014
lhumerus -24.7558 -27.2108 96.1853
lradius 73.32
lwrist -4.94039
lhand -16.2972 19.5693
lfingers 7.12502
lthumb 9.91346 -310.684
rfemur -19.8993 9.01444 10.5713
rtibia 36.8991
rfoot -12.8473 -12.5203
rtoes -14.8437
lfemur -9.71311 -2.99352 -14.6165
ltibia 29.7397
lfoot -13.1248 18.2296
ltoes -11.9913
2241
root 0.496998 17.0139 -50.4394 4.63144 -1.67807 -1.23779
lowerback 5.03627 0.322563 -4.37231
upperback -2.02536 0.255544 2.83281
thorax -4.97519 0.317107 5.40231
lowerneck -5.05288 -3.93374 -6.42613
upperneck 23.1069 -7.13494 10.9911
head 8.59979 -2.93279 4.17276
rclavicle 5.34234e-015 -3.97569e-016
rhumerus -41.8206 6.90343 -80.7706
rradius 37.0083
rwrist -2.11052
rhand -9.11394 -20.5868
rfingers 7.12502
rthumb 16.8368 -49.8768
lclavicle 5.34234e-015 -3.97569e-016
lhumerus -24.1003 -27.9425 96.0854
lradius 75.3554
lwrist -4.10657
lhand -16.3071 19.5542
lfingers 7.12502
lthumb 9.9039 -310.699
rfemur -19.8361 8.99136 10.5704
rtibia 36.9456
rfoot -12.8552 -12.6134
rtoes -14.8168
lfemur -9.68759 -3.0597 -14.6229
ltibia 29.7225
lfoot -13.105 18.1688
ltoes -12.0265
2242
root 0.491667 17.0132 -50.4418 4.58642 -1.56554 -1.20448
lowerback 5.08645 0.341604 -4.3338
upperback -2.07224 0.281067 2.81195
thorax -5.0557 0.331577 5.35654
lowerneck -5.05037 -3.47604 -6.09875
upperneck 22.8682 -6.49416 10.9427
head 8.43994 -2.61095 4.15635
rclavicle 4.67144e-015 5.96354e-015
rhumerus -41.8646 6.90058 -80.783
rradius 37.1401
rwrist -2.17377
rhand -9.10395 -20.5632
rfingers 7.12502
rthumb 16.8464 -49.8524
lclavicle 4.67144e-015 5.96354e-015
lhumerus -23.4589 -28.6514 95.9847
lradius 77.4206
lwrist -3.34195
lhand -16.3759 19.4785
lfingers 7.12502
lthumb 9.83749 -310.771
rfemur -19.7837 8.9619 10.569
rtibia 36.994
rfoot -12.87 -12.6942
rtoes -14.7804
lfemur -9.6612 -3.11932 -14.6284
ltibia 29.6964
lfoot -13.0878 18.1065
ltoes -12.0436
2243
root 0.485951 17.0125 -50.4438 4.54688 -1.46161 -1.16922
lowerback 5.12877 0.364262 -4.29589
upperback -2.11947 0.311468 2.78635
thorax -5.13264 0.348242 5.30554
lowerneck -5.04956 -3.03643 -5.7728
upperneck 22.6417 -5.878 10.8784
head 8.29036 -2.30164 4.13038
rclavicle 9.74045e-015 -9.14409e-015
rhumerus -41.9114 6.88954 -80.7956
rradius 37.2833
rwrist -2.23989
rhand -9.09433 -20.5948
rfingers 7.12502
rthumb 16.8556 -49.8832
lclavicle 9.74045e-015 -9.14409e-015
lhumerus -22.7481 -29.3505 95.848
lradius 79.4891
lwrist -2.68054
lhand -16.4387 19.3289
lfingers 7.12502
lthumb 9.77688 -310.918
rfemur -19.7375 8.93167 10.566
rtibia 37.0417
rfoot -12.8905 -12.7684
rtoes -14.73
lfemur -9.63201 -3.17485 -14.6348
ltibia 29.6617
lfoot -13.0734 18.0457
ltoes -12.0505
